inDegrees=no
num_controls=7
num_derivatives=13
num_iterations=75
num_multipliers=7
num_parameters=0
num_slacks=7
num_states=26
objective=0.448511
objective_accelerations=0.064395
objective_balance=0.005277
objective_effort=0.059481
objective_height=0.313428
objective_ligament=0.005930
solver_duration=912.862157
status=Solve_Succeeded
success=true
DataType=double
version=3
OpenSimVersion=4.5
endheader
time	/jointset/ground_pelvis/pelvis_tilt/value	/jointset/ground_pelvis/pelvis_tx/value	/jointset/ground_pelvis/pelvis_ty/value	/jointset/hip_r/hip_flexion_r/value	/jointset/hip_r/hip_adduction_r/value	/jointset/hip_r/hip_rotation_r/value	/jointset/back/lumbar_extension/value	/jointset/patellofemoral_r/patellar_flexion_r/value	/jointset/knee_r/knee_flexion_r/value	/jointset/knee_r/knee_adduction_r/value	/jointset/knee_r/knee_rotation_r/value	/jointset/ankle_r/ankle_angle_r/value	/jointset/subtalar_r/subtalar_angle_r/value	/jointset/ground_pelvis/pelvis_tilt/speed	/jointset/ground_pelvis/pelvis_tx/speed	/jointset/ground_pelvis/pelvis_ty/speed	/jointset/hip_r/hip_flexion_r/speed	/jointset/hip_r/hip_adduction_r/speed	/jointset/hip_r/hip_rotation_r/speed	/jointset/back/lumbar_extension/speed	/jointset/patellofemoral_r/patellar_flexion_r/speed	/jointset/knee_r/knee_flexion_r/speed	/jointset/knee_r/knee_adduction_r/speed	/jointset/knee_r/knee_rotation_r/speed	/jointset/ankle_r/ankle_angle_r/speed	/jointset/subtalar_r/subtalar_angle_r/speed	/forceset/tau_hip_flexion_r	/forceset/tau_hip_adduction_r	/forceset/tau_hip_rotation_r	/forceset/tau_knee_flexion_r	/forceset/tau_ankle_angle_r	/forceset/tau_subtalar_angle_r	/forceset/tau_lumbar_extension	lambda_cid13_p0	lambda_cid14_p0	lambda_cid14_p1	lambda_cid14_p2	lambda_cid14_p3	lambda_cid14_p4	lambda_cid14_p5	/jointset/ground_pelvis/pelvis_tilt/accel	/jointset/ground_pelvis/pelvis_tx/accel	/jointset/ground_pelvis/pelvis_ty/accel	/jointset/hip_r/hip_flexion_r/accel	/jointset/hip_r/hip_adduction_r/accel	/jointset/hip_r/hip_rotation_r/accel	/jointset/back/lumbar_extension/accel	/jointset/patellofemoral_r/patellar_flexion_r/accel	/jointset/knee_r/knee_flexion_r/accel	/jointset/knee_r/knee_adduction_r/accel	/jointset/knee_r/knee_rotation_r/accel	/jointset/ankle_r/ankle_angle_r/accel	/jointset/subtalar_r/subtalar_angle_r/accel	gamma_cid13_p0	gamma_cid14_p0	gamma_cid14_p1	gamma_cid14_p2	gamma_cid14_p3	gamma_cid14_p4	gamma_cid14_p5
0.5	-0.2168908149769997	-0.03354821472325192	0.6850930606494552	1.36013661029559	-0.2294195662668654	-0.06240913074026844	-0.3835746141689394	1.311636029138169	1.311636029138266	-0.07089231046499431	0.1726902257899874	0.366298113287724	0.08902860598752675	-0.3997781218016798	-0.1521214295342255	-1.028259659771177	3.027813412016664	-0.04357152887640405	0.3223166013217154	-0.4890337486916818	3.12592969629959	3.125929696299584	-0.4614952342081322	-0.0104938304368651	0.6130860988901519	0.1404242444198009	-0.1941179788356895	-0.0172104773534339	0.0116747033578331	-0.4624225120060469	0.1286115535260325	0.0008354768314883472	0.2311206555838224	-0.04573508257442557	-0.7509953102272147	0.02120253224052084	0.6966311520187604	-8.731032619277592	-678.9291933736897	64.75959710158916	1.918769834783132	1.302515323871879	-0.3983435659828672	-2.775064308400749	-0.1504045563559534	-0.2415257324331619	2.732076029953903	-3.141069002316856	-3.141069002316897	1.115313801746567	-0.1398054240540157	-2.617419490120278	-1.006661220415484	4.499821302394468e-07	1.231687911547156e-06	6.536965065796321e-06	7.096388943178548e-06	-1.450828700161994e-06	-3.614170735731568e-07	8.826704237984868e-06
0.51	-0.2207913394173418	-0.03500435635859127	0.6747931450390772	1.390272605633101	-0.2298626498927475	-0.05920499984020537	-0.3883288438631013	1.342734589796427	1.342734589796454	-0.07545790491530116	0.1725816474364039	0.3722967533947786	0.09038196379511711	-0.380194337154189	-0.1391108741249743	-1.031456149732492	2.999022798954914	-0.04501032795780494	0.3184989339651061	-0.4618659050894638	3.093442864777418	3.093442864777365	-0.4516531157477631	-0.01119896917538443	0.5865322500241725	0.1302184218246551	-0.2017896969583914	-0.01608931953522062	0.01124558142108815	-0.4735925466393483	0.1282616198156948	0.0003940888104995558	0.238457127596991	-0.04570630092090661	-1.545648052900974	-0.4946209656839912	0.9901664594448838	-8.059013023309429	-689.5548650317317	64.88718337051189	1.998200278680443	1.299453977536438	-0.2402629335597329	-2.985326439637038	-0.1343250859397978	-0.453164811811572	2.701081283133708	-3.353521292255079	-3.353521292262133	0.9145510874407088	-0.03072725002624786	-2.690903547918609	-1.030186043689768	4.882135186673292e-07	1.220290951953589e-06	5.628879374159725e-06	6.763736476617472e-06	-1.380027330932505e-06	-3.012762711372985e-07	8.500142212012162e-06
0.52	-0.2244920225114267	-0.03633056677422145	0.6644692722846146	1.420109841513072	-0.2303188630098242	-0.05603930112862047	-0.3928130065696867	1.373498075926446	1.373498075926408	-0.07992590013715048	0.1724670458651711	0.3780265478205563	0.09163273472383089	-0.359809852548738	-0.1261351855923898	-1.033051088587954	2.968061520510167	-0.04619742711550757	0.3146301636270262	-0.4350203511761072	3.058914790651738	3.058914790651638	-0.4419753885170482	-0.0116984739649205	0.5593169626349176	0.119906868644485	-0.2094614150811007	-0.01496816171701858	0.01081645948436371	-0.4847625812726492	0.1279116861053554	-4.729921050744926e-05	0.2457935996101522	-0.04558015892003347	-2.350245812371678	-1.016582966906233	1.289713053422805	-7.383445804713351	-700.328862133008	65.00380285051334	2.078909826375314	1.295541948538446	-0.07803334481206932	-3.209197385000197	-0.1000645716162858	-0.2517463287272753	2.667618092181658	-3.549317523018503	-3.549317523018515	1.082435555815725	-0.09867863425737612	-2.74970719477551	-1.02780733742038	5.100709302025631e-07	1.23522584357911e-06	5.503388944831081e-06	6.658011057689018e-06	-1.388336169027318e-06	-3.229671975086697e-07	8.815914123184318e-06
0.53	-0.2279852475091579	-0.03752726542525422	0.6541373525623135	1.449627114230643	-0.2307857231280336	-0.0529116747750529	-0.3970302629749733	1.403906603861786	1.403906603861705	-0.08429724918599532	0.1723477739572091	0.3834812616922272	0.09277995388783319	-0.3387248007103125	-0.1132149365052277	-1.033071726104327	2.935049827770077	-0.04713302895830013	0.3109535252194215	-0.4084979937738848	3.022491056040141	3.022491056040066	-0.4322646680917714	-0.01217221653549552	0.5315586921471879	0.1095368177381993	-0.2165062995238354	-0.01415161091150967	0.01016535850483345	-0.4956760111928206	0.1278381340341722	-0.000423609308824744	0.2525470799163989	-0.0453303985965926	-3.025009327229399	-1.478021730597785	1.568718970504638	-6.810567130728799	-710.4989253964781	65.18441698483494	2.140012542545909	1.288429064863312	0.07502363799550935	-3.398468939903666	-0.08308613039805704	-0.4165319590172625	2.634484980427687	-3.733966796853163	-3.733966796849234	0.9200407760019652	-0.02247098927842912	-2.79901941023962	-1.040001379036428	5.21447862602643e-07	1.23406297087094e-06	5.336666474341898e-06	6.480664120477662e-06	-1.384916772263785e-06	-3.417607209413797e-07	9.004734522812381e-06
0.54	-0.2312642800525193	-0.03859512905020398	0.6438130469834571	1.478804007276528	-0.2312604948926278	-0.04981899667801347	-0.4009843077230021	1.433941881377686	1.433941881377569	-0.08857056093256213	0.1722236148393695	0.3886563663721265	0.09382379306041193	-0.3169713616730732	-0.1003681803757841	-1.031528259898881	2.899985586174378	-0.04777975639258205	0.3076405123222093	-0.3823780197242362	2.984264706763627	2.984264706763579	-0.4223679280617616	-0.01267591593890779	0.5033951242807391	0.09923087035976429	-0.2235511839665819	-0.01333506010600917	0.009514257525313714	-0.5065894411129926	0.1277645819629885	-0.0007999194071554147	0.2593005602226336	-0.0449691241283557	-3.712648813885182	-1.943830311435278	1.850847094369354	-6.230771073977487	-720.8705687506821	65.36440873155148	2.212587266138193	1.280843356994688	0.2347873995518947	-3.619707156121808	-0.04228968991414242	-0.1790212266487441	2.587141421666981	-3.909840456001876	-3.909840456001865	1.11963947676232	-0.1046700008248471	-2.830766670519465	-1.014986631850273	5.212293712787228e-07	1.21508980570847e-06	5.12432557533467e-06	6.224076354527775e-06	-1.368521456082506e-06	-3.573486070802517e-07	9.053097930944851e-06
